<svg width="16" height="15" viewBox="0 0 16 15" fill="none" xmlns="http://www.w3.org/2000/svg">
<rect x="2.80859" y="2.78471" width="11.4068" height="8.46871" fill="#00AAFF"/>
<path fill-rule="evenodd" clip-rule="evenodd" d="M2.95845 0.140919C2.68434 0.199854 2.29547 0.363092 2.0943 0.50369C1.67657 0.795688 1.21277 1.43853 1.08324 1.90526C0.963465 2.33639 0.963465 11.7017 1.08324 12.1329C1.33125 13.026 2.15436 13.7594 3.09188 13.9226C3.84706 14.0541 12.4858 14.0541 13.241 13.9226C14.1785 13.7594 15.0016 13.026 15.2497 12.1329C15.3694 11.7017 15.3694 2.33639 15.2497 1.90526C15.0016 1.01216 14.1785 0.278751 13.241 0.115512C12.438 -0.0243076 3.62635 -0.00253093 2.95845 0.140919ZM7.31396 3.79828C8.25009 4.10012 8.74672 4.89713 8.66886 5.973C8.61537 6.71246 8.27092 7.24037 7.62704 7.5697C7.21795 7.77891 6.99975 7.82765 6.31206 7.8636L5.48757 7.90681V8.88875V9.87077H4.88266H4.27775V6.75982V3.64886H5.56405C6.54693 3.64886 6.95974 3.68412 7.31396 3.79828ZM5.48757 5.82178V6.87129L6.086 6.82117C6.41515 6.79352 6.80333 6.70944 6.94868 6.63434C7.62635 6.28384 7.63274 5.25152 6.95948 4.90336C6.80324 4.82256 6.47227 4.77226 6.0968 4.77226H5.48757V5.82178ZM12.2496 5.20892L12.5736 5.29888V5.85271V6.40646L12.2064 6.27494C11.6744 6.08448 10.8896 6.07463 10.7074 6.25619C10.4696 6.49331 10.6283 6.66424 11.4279 7.03203C12.2344 7.40292 12.5169 7.61317 12.7115 7.98691C13.0766 8.68869 12.5898 9.63641 11.7424 9.87362C11.3115 9.99426 9.97996 9.94742 9.6139 9.7987C9.38931 9.70753 9.37626 9.67176 9.37626 9.1467V8.59113L9.82994 8.7669C10.4298 8.99936 11.2981 9.02191 11.51 8.81054C11.7079 8.61325 11.5922 8.40689 11.1845 8.23035C9.81784 7.63849 9.46267 7.29594 9.46267 6.56988C9.46267 6.3369 9.5204 6.03471 9.591 5.89817C9.73583 5.61801 10.1326 5.30856 10.4816 5.2033C10.8215 5.1009 11.8726 5.10418 12.2496 5.20892Z" fill="#001834"/>
</svg>
